<?xml version="1.0" encoding="utf-8"?>
<!-- Generator: Adobe Illustrator 26.0.3, SVG Export Plug-In . SVG Version: 6.00 Build 0)  -->
<svg version="1.1" id="Layer_1" xmlns="http://www.w3.org/2000/svg" xmlns:xlink="http://www.w3.org/1999/xlink" x="0px" y="0px"
	 viewBox="0 0 36 36" style="enable-background:new 0 0 36 36;" xml:space="preserve">
<style type="text/css">
	.st0{fill:#FFFFFF;}
	.st1{fill:#5A3AB5;}
</style>
<g>
	<path class="st0" d="M18,36L18,36C8.1,36,0,27.9,0,18v0C0,8.1,8.1,0,18,0h0c9.9,0,18,8.1,18,18v0C36,27.9,27.9,36,18,36z"/>
	<g>
		<g>
			<path class="st1" d="M28.2,9.3L5.4,5l12.4,30.8l16.9-20.8L28.2,9.3z M31.8,14.7l-10.1,1.7l6.2-5.2L31.8,14.7z M26.3,10.4
				l-6.5,5.5L9.4,7.3L26.3,10.4z M17.5,31.1L8.6,8.7l10.5,8.6L17.5,31.1z M19,31.7l1.7-13.6l11-1.9L19,31.7z"/>
		</g>
	</g>
</g>
</svg>
