<svg width="644" height="560" viewBox="0 0 644 560" fill="none" xmlns="http://www.w3.org/2000/svg">
<g clip-path="url(#clip0_402_9)">
<path fill-rule="evenodd" clip-rule="evenodd" d="M117.872 2.75003L0.493099 249.304C0.046439 250.221 -0.0951046 251.257 0.0891672 252.26C0.273439 253.264 0.773859 254.181 1.51725 254.88L318.529 558.653C319.429 559.517 320.629 559.999 321.876 559.999C323.124 559.999 324.323 559.517 325.224 558.653L642.235 254.899C642.979 254.2 643.479 253.282 643.663 252.279C643.848 251.276 643.706 250.24 643.259 249.323L525.881 2.76899C525.502 1.94096 524.893 1.23951 524.126 0.748479C523.359 0.257447 522.467 -0.00239741 521.557 8.20204e-07H122.234C121.319 -0.0113817 120.42 0.242203 119.646 0.730166C118.872 1.21813 118.256 1.91962 117.872 2.75003Z" fill="#50AF95"/>
<path fill-rule="evenodd" clip-rule="evenodd" d="M362.605 274.623C360.329 274.794 348.57 275.496 322.341 275.496C301.479 275.496 286.666 274.87 281.47 274.623C200.847 271.077 140.669 257.042 140.669 240.238C140.669 223.435 200.847 209.419 281.47 205.816V260.646C286.742 261.025 301.839 261.916 322.701 261.916C347.736 261.916 360.272 260.873 362.529 260.665V205.854C442.982 209.438 503.027 223.473 503.027 240.238C503.027 257.004 443.001 271.039 362.529 274.604L362.605 274.623ZM362.605 200.183V151.119H474.882V76.299H169.193V151.119H281.451V200.164C190.207 204.355 121.589 222.43 121.589 244.088C121.589 265.747 190.207 283.803 281.451 288.013V445.239H362.586V287.956C453.621 283.765 522.125 265.709 522.125 244.07C522.125 222.43 453.678 204.374 362.586 200.164L362.605 200.183Z" fill="white"/>
</g>
<defs>
<clipPath id="clip0_402_9">
<rect width="643.753" height="560" fill="white"/>
</clipPath>
</defs>
</svg>
